# xmcd
# Track frame offsets:
# 150
# 13474
# 26197
# 36439
# 49135
# 61722
# 73432
# 86205
# 101334
# 115687
# 130640
# 136382
# 148284
# 163212
# 176710
# 190126
#
# Disc length: 2657 seconds
# Revision: 0
# Processed by: cddbd v1.5.1PL2 Copyright (c) Steve Scherf et al.
# Submitted via: VisiTrax 2.9.10.228 - For more info visit www.synapsa.com
#
DISCID=f40a5f10
DTITLE=Various Artist - O Brother - CD1
DYEAR=2005
DGENRE=
TTITLE0=I'm A Man Of Constant Sorrow - The Stanley Brothers
TTITLE1=Keep On The Sunny Side - The Carter Family
TTITLE2=Big Rock Candy Mountain - Harry McClintock
TTITLE3=Hard Time Killin' Floor Blues - Skip James
TTITLE4=You Are My Sunshine - Jimmie Davis
TTITLE5=I'll Fly Away - The Humbard Family
TTITLE6=I'm Blue, I'm Lonesome - Bill Monroe
TTITLE7=Lonesome Valley - Sanctified Group
TTITLE8=Indian War Whoop - Hoyt Ming and His Pep-Steppers
TTITLE9=In The Jailhouse Now - Jimmie Rodgers
TTITLE10=In The Highways - The Carter Family
TTITLE11=Sandy Land - Fiddlin' Sam Long
TTITLE12=John The Revelator - Blind Willie Johnson
TTITLE13=Way Down The Old Plank Road - Uncle Dave Macon
TTITLE14=Country Blues - Dock Boggs
TTITLE15=O Death - Charlie Monroe's Boys
EXTD=
EXTT0=
EXTT1=
EXTT2=
EXTT3=
EXTT4=
EXTT5=
EXTT6=
EXTT7=
EXTT8=
EXTT9=
EXTT10=
EXTT11=
EXTT12=
EXTT13=
EXTT14=
EXTT15=
PLAYORDER=
